<svg xmlns="http://www.w3.org/2000/svg" xmlns:xlink="http://www.w3.org/1999/xlink" width="1920" zoomAndPan="magnify" viewBox="0 0 1440 959.999988" height="1280" preserveAspectRatio="xMidYMid meet" version="1.0"><path fill="#369694" d="M 727.5625 180.570312 C 786.511719 207.328125 855.707031 196.871094 919 195.429688 C 982.339844 193.984375 1072.007812 199.023438 1089.945312 276.394531 C 1096.804688 305.976562 1088.933594 339.164062 1069.488281 362.691406 C 1048.996094 387.488281 1015.914062 403.523438 1007.445312 434.769531 C 1000.738281 459.480469 1012.457031 485.148438 1027.425781 505.003906 C 1051.445312 536.871094 1084.117188 560.660156 1109.019531 591.78125 C 1133.925781 622.902344 1150.734375 666.519531 1135.4375 704.65625 C 1120.046875 743.027344 1078.554688 762.097656 1040.265625 774.171875 C 959.25 799.722656 867.945312 810.203125 794.796875 769.074219 C 751.484375 744.730469 717.164062 703.660156 670.011719 688.292969 C 609.035156 668.425781 542.09375 696.089844 478.042969 690.953125 C 401.734375 684.820312 332.824219 627.351562 311.078125 551.6875 C 289.320312 476.027344 316.050781 386.769531 375.835938 335.421875 C 403.8125 311.382812 437.675781 295.472656 464.738281 270.328125 C 486.007812 250.570312 502.558594 225.375 512.421875 197.734375 C 522.867188 168.46875 527.644531 133.910156 551.878906 115.199219 C 576.695312 96.039062 612.078125 102.464844 638.316406 118.046875 C 664.558594 133.636719 685.808594 156.960938 712.074219 172.503906 C 717.152344 175.507812 722.316406 178.1875 727.5625 180.570312 " fill-opacity="1" fill-rule="nonzero"/></svg>