<svg xmlns="http://www.w3.org/2000/svg" xmlns:xlink="http://www.w3.org/1999/xlink" width="1920" zoomAndPan="magnify" viewBox="0 0 1440 959.999988" height="1280" preserveAspectRatio="xMidYMid meet" version="1.0"><path fill="#f9a8c9" d="M 704.289062 790.824219 C 763.035156 816.152344 817.566406 857.746094 881.476562 860.734375 C 927.703125 862.898438 974.476562 842.789062 1004.726562 807.746094 C 1034.976562 772.703125 1048.0625 723.480469 1039.207031 678.03125 C 1032.9375 645.832031 1016.347656 613.367188 1025.4375 581.851562 C 1035.003906 548.6875 1071.421875 524.882812 1070.644531 490.375 C 1070.085938 465.558594 1049.476562 445.464844 1027.203125 434.527344 C 1004.9375 423.582031 980.027344 418.867188 957.765625 407.898438 C 910.632812 384.667969 881.210938 336.675781 858.574219 289.238281 C 835.933594 241.789062 816.679688 191.1875 780.382812 153.175781 C 744.09375 115.160156 684.273438 93.144531 638.011719 118.074219 C 599.339844 138.90625 580.796875 185.640625 543.472656 208.824219 C 514.242188 226.972656 477.601562 228.078125 443.398438 224.390625 C 409.199219 220.699219 375.144531 212.769531 340.808594 214.867188 C 290.949219 217.914062 242.863281 243.265625 212.15625 282.6875 C 181.460938 322.117188 168.644531 374.960938 177.882812 424.089844 C 186.394531 469.320312 212.554688 513.660156 202.039062 558.464844 C 195.507812 586.304688 175.75 608.789062 161.277344 633.449219 C 129.738281 687.191406 123.4375 755.089844 144.5625 813.726562 C 157.40625 849.386719 181.871094 883.003906 217.273438 896.515625 C 261.6875 913.46875 290.765625 890.890625 317.0625 859.222656 C 345.28125 825.226562 389.976562 802.320312 430.871094 786.90625 C 518.128906 754.027344 618.269531 753.742188 704.289062 790.824219 " fill-opacity="1" fill-rule="nonzero"/><path fill="#ffd7e7" d="M 959.90625 687.988281 C 947.136719 721.933594 922.089844 753.605469 887.242188 766.472656 C 845.949219 781.714844 801.929688 766.257812 763.898438 749.050781 C 726.445312 732.109375 688.929688 712.347656 646.984375 710.066406 C 628.375 709.054688 609.652344 713.09375 592.925781 721.242188 C 575.835938 729.566406 561.300781 742.449219 544.496094 751.4375 C 511.3125 769.195312 472.5 777.371094 436.875 761.78125 C 422.054688 755.296875 408.464844 745.042969 399.839844 731.191406 C 390.8125 716.695312 388.746094 699.84375 390.664062 683.113281 C 394.527344 649.378906 412.382812 617.832031 411.292969 583.402344 C 410.304688 552.203125 390.4375 530.007812 363.71875 516.363281 C 335.816406 502.109375 303.9375 495.59375 278.269531 477.042969 C 252.035156 458.078125 234.136719 428.769531 226.648438 397.507812 C 219.132812 366.144531 222.296875 332.101562 238.332031 303.824219 C 254.300781 275.671875 281.429688 254.640625 311.789062 243.96875 C 342.261719 233.261719 375.949219 232.792969 405.996094 245.191406 C 441.117188 259.679688 468.976562 286.820312 502.40625 304.359375 C 571.820312 340.769531 648.335938 314.335938 720.871094 305.011719 C 757.625 300.285156 795.417969 300.167969 830.21875 314.453125 C 864.890625 328.683594 894.191406 354.652344 915.636719 385.089844 C 938.945312 418.167969 953.058594 456.757812 961.453125 496.125 C 970.421875 538.179688 974.878906 582.78125 972.222656 625.761719 C 970.90625 647.023438 967.09375 667.914062 959.90625 687.988281 C 958.15625 692.875 965.929688 694.976562 967.667969 690.128906 C 982.835938 647.789062 982.507812 602.179688 978.542969 557.933594 C 974.660156 514.578125 966.683594 471.1875 949.789062 430.878906 C 920.867188 361.867188 862.34375 303.308594 785.289062 295.140625 C 705.769531 286.710938 627.832031 327.589844 548.597656 312.242188 C 508.648438 304.503906 478.179688 279.042969 445.011719 257.390625 C 415.339844 238.027344 383.375 225.347656 347.429688 228.21875 C 283.082031 233.363281 224.636719 280.847656 215.933594 346.335938 C 211.679688 378.332031 218.726562 411.578125 234.648438 439.578125 C 251.109375 468.511719 275.976562 488.402344 306.359375 501.238281 C 335.058594 513.367188 371.191406 521.472656 390.953125 547.609375 C 414.34375 578.542969 398.519531 617.71875 389.347656 650.785156 C 380.4375 682.910156 376.65625 717.203125 399.644531 744.476562 C 420.179688 768.84375 454.660156 780.53125 485.933594 778.089844 C 505.269531 776.582031 523.957031 770.53125 541.332031 762.085938 C 560.230469 752.902344 576.0625 739.003906 594.582031 729.402344 C 636.71875 707.5625 684.574219 721.9375 725.335938 739.945312 C 764.769531 757.367188 803.941406 779.789062 848.222656 780.75 C 885.8125 781.566406 919.445312 763.761719 942.675781 734.691406 C 953.421875 721.242188 961.613281 706.21875 967.664062 690.128906 C 969.496094 685.273438 961.714844 683.179688 959.90625 687.988281 Z M 959.90625 687.988281 " fill-opacity="1" fill-rule="nonzero"/></svg>