<svg xmlns="http://www.w3.org/2000/svg" xmlns:xlink="http://www.w3.org/1999/xlink" width="1920" zoomAndPan="magnify" viewBox="0 0 1440 959.999988" height="1280" preserveAspectRatio="xMidYMid meet" version="1.0"><path fill="#85dbd9" d="M 356.925781 398.21875 C 337.703125 431.757812 345.90625 474.554688 356.609375 512.019531 C 367.308594 549.488281 379.972656 589.652344 367.996094 626.695312 C 364.378906 637.894531 358.535156 648.554688 357.691406 660.339844 C 356.078125 682.847656 373.738281 702.832031 393.921875 710.859375 C 414.101562 718.890625 436.382812 717.816406 457.972656 717.371094 C 479.558594 716.929688 502.160156 717.488281 521.15625 728.222656 C 559.699219 750.011719 569.335938 804.292969 602.1875 834.613281 C 627.136719 857.640625 663.066406 863.976562 696.0625 859.371094 C 729.0625 854.769531 760 840.484375 790.421875 826.359375 C 835.480469 805.4375 880.886719 784.3125 921.035156 754.402344 C 958.367188 726.59375 991.289062 690.410156 1008.5625 646.027344 C 1025.839844 601.640625 1025.667969 548.378906 1001.261719 507.824219 C 981.234375 474.554688 945.257812 447.816406 944.179688 408.527344 C 943.546875 385.441406 955.828125 362.8125 951.804688 340.097656 C 942.601562 288.226562 871.847656 280.429688 832.335938 286.152344 C 785.058594 293 745.570312 320.835938 712.570312 355.445312 C 691.21875 377.832031 671.027344 405.847656 639.003906 410.359375 C 591.28125 417.078125 542.632812 380.691406 499.027344 365.886719 C 452.042969 349.925781 386.144531 347.242188 356.925781 398.21875 " fill-opacity="1" fill-rule="nonzero"/></svg>