<svg version="1.2" xmlns="http://www.w3.org/2000/svg" viewBox="0 0 737 595" width="737" height="595"><defs><clipPath clipPathUnits="userSpaceOnUse" id="cp1"><path d="m10 8h722v583h-722z"/></clipPath><clipPath clipPathUnits="userSpaceOnUse" id="cp2"><path d="m-58.57 280.61l610.87-333.55 273.89 501.6-610.87 333.55z"/></clipPath><clipPath clipPathUnits="userSpaceOnUse" id="cp3"><path d="m-58.57 280.61l610.87-333.55 273.89 501.6-610.87 333.55z"/></clipPath></defs><style>.a{fill:#7a72bd}</style><g clip-path="url(#cp1)"><g clip-path="url(#cp2)"><g clip-path="url(#cp3)"><path class="a" d="m581.6 45.4c5.2 12.1 6.4 25.6 5.5 38.7-0.8 13.1-3.6 26.1-6 39-2.4 12.9-4.4 26.1-3.7 39.2 0.8 13.2 4.4 26.4 12.4 36.9 9 11.8 22.8 19.1 36.9 23.6 14.1 4.4 28.9 6.4 43.4 9.5 14.4 3.1 29 7.6 40.9 16.4 5.9 4.4 11.1 9.9 14.8 16.3 3.8 6.4 5.9 13.8 5.9 21.2-0.2 10.4-4.7 20.4-11.3 28.4-6.6 8-15 14.3-23.9 19.7-8.8 5.5-18.1 10.2-26.9 15.7-8.8 5.4-17.3 11.8-23.7 19.9-11.3 14.2-15.6 32.8-16.1 51-0.4 18.1 2.6 36 4.7 54 2 18 3 36.5-1.5 54.1-2.3 8.7-5.9 17.2-11.2 24.5-5.3 7.4-12.3 13.6-20.5 17.5-8.1 3.9-17.3 5.4-26.4 5-9-0.5-17.9-2.9-26.1-6.5-16.6-7.3-30.5-19.4-43.6-31.8-13.2-12.5-25.9-25.5-41-35.5-15.2-9.9-33.2-16.5-51.2-14.3-16.4 1.9-31.3 11-43.4 22.3-12.1 11.2-21.9 24.7-32.3 37.5-10.5 12.8-21.8 25.3-36.1 33.7-7.1 4.2-14.9 7.3-23 8.8-8.2 1.4-16.7 1-24.5-1.5-12.8-4.1-23.2-13.8-30.5-25-7.3-11.2-11.8-24-15.8-36.8-4-12.8-7.6-25.8-13.3-37.9-5.6-12.1-13.6-23.6-24.7-31.1-10-6.7-22-9.9-34.1-11.1-12-1.2-24.1-0.4-36.2 0.2-12 0.6-24.2 1.1-36.1-0.7-12-1.7-23.8-5.9-33.1-13.6-9.4-7.7-15.7-18.9-18.4-30.7-2.6-11.9-1.7-24.4 1.9-36 7.2-23.2 24.7-41.9 44.3-56.2 19.7-14.2 41.8-24.7 62.9-36.8 21-12.1 41.5-26.4 55.5-46.2 13.6-19.1 20.2-42.2 30-63.5 4.9-10.7 10.6-21.1 18.2-30 7.6-9 17.2-16.5 28.2-20.4 13.3-4.8 27.9-4.3 41.7-1.2 13.7 3.2 26.7 8.8 39.7 14.2 13 5.3 26.2 10.5 40.1 12.7 13.9 2.2 28.7 1.1 41.1-5.4 9.7-5.1 17.5-13.2 23.5-22.4 6.1-9.1 10.4-19.2 14.4-29.4 3.9-10.2 7.6-20.5 12.4-30.3 4.9-9.8 11-19.2 19.1-26.5 14.4-12.9 35-18.4 53.9-14.4 18.9 4 35.5 17.5 43.2 35.2z"/></g></g></g></svg>